<svg width="24" height="24" viewBox="0 0 24 24" fill="none" xmlns="http://www.w3.org/2000/svg">
<g clip-path="url(#clip0_415_68)">
<path fill-rule="evenodd" clip-rule="evenodd" d="M14.0643 8.54928C14.7985 8.1832 15.7326 7.64432 16.6679 6.906C16.8651 7.31552 16.8867 7.67288 16.7851 7.96144C16.7131 8.1648 16.5774 8.34168 16.399 8.4824C16.2058 8.63448 15.9646 8.7452 15.6978 8.80504C15.1918 8.91904 14.6009 8.85248 14.0643 8.54928ZM14.1916 12.3002L15.1634 12.8615C13.1791 13.9737 12.6397 16.0388 11.9989 18.0502C11.3582 16.0388 10.8186 13.9737 8.8344 12.8615L9.80624 12.3002C9.90026 12.2646 9.98061 12.2003 10.0358 12.1163C10.091 12.0323 10.1182 11.933 10.1134 11.8326C10.0244 9.9488 10.533 9.11576 11.2191 8.59272C11.4652 8.40536 11.7338 8.31128 11.9989 8.31128C12.2639 8.31128 12.5326 8.40536 12.7787 8.59272C13.4648 9.11576 13.9734 9.9488 13.8844 11.8326C13.8797 11.933 13.9069 12.0323 13.9621 12.1163C14.0172 12.2003 14.0976 12.2646 14.1916 12.3002ZM11.9989 0C13.1222 0.03016 14.2484 0.24824 15.2258 0.67248C15.9026 0.96664 16.5341 1.3552 17.1059 1.81984C17.3642 2.0296 17.5768 2.23224 17.811 2.46552C18.4428 2.48736 19.3661 1.78552 19.7947 1.1288C19.057 3.5472 15.6908 6.40312 13.3603 7.49592C13.3594 7.49552 13.3587 7.49496 13.358 7.49448C12.9398 7.17512 12.4694 7.01544 11.9989 7.01544C11.5284 7.01544 11.0581 7.17512 10.6398 7.49448C10.6391 7.49488 10.6385 7.4956 10.6375 7.49592C8.30696 6.40312 4.9408 3.5472 4.20312 1.1288C4.63168 1.78552 5.55497 2.48736 6.18673 2.46552C6.42105 2.23232 6.63369 2.0296 6.89184 1.81984C7.46369 1.3552 8.0952 0.96664 8.77201 0.67248C9.74944 0.24824 10.8756 0.03016 11.9989 0ZM9.93344 8.54928C9.19936 8.1832 8.26512 7.64432 7.32992 6.906C7.13272 7.31552 7.11112 7.67288 7.21264 7.96144C7.28472 8.1648 7.4204 8.34168 7.59872 8.4824C7.792 8.63448 8.03328 8.7452 8.3 8.80504C8.80608 8.91904 9.39688 8.85248 9.93344 8.54928Z" fill="white"/>
<path fill-rule="evenodd" clip-rule="evenodd" d="M17.6923 5.99952C18.2072 5.47992 18.6609 4.9048 19.0257 4.3916L19.2109 4.74032C19.8074 5.93368 20.1173 7.12224 20.1173 8.45984L20.1161 10.5824L20.1273 11.6827C20.1705 14.384 20.7549 17.117 22.0789 19.6182L19.3088 17.3844L17.3487 20.5651L15.2895 18.6266L11.9989 23.9666L8.70838 18.6267L6.64927 20.5652L4.68919 17.3845L1.91895 19.6182C3.24295 17.1171 3.82743 14.3841 3.87071 11.6828L3.88191 10.5825L3.88063 8.45992C3.88063 7.12224 4.19047 5.93368 4.78711 4.7404L4.97231 4.39168C5.33711 4.90488 5.79071 5.47992 6.30567 5.9996L6.14487 6.3336C5.83247 6.98232 5.72903 7.70768 5.97238 8.39752C6.12927 8.84184 6.41559 9.22288 6.78471 9.51376C7.14311 9.79624 7.56727 9.98664 8.01134 10.0866C8.30062 10.1518 8.59535 10.1786 8.88814 10.1694C8.81983 10.5567 8.78999 10.9584 8.78806 11.3677L6.17495 12.877L8.19142 14.0073C8.3526 14.0976 8.50603 14.2012 8.65015 14.3168C10.3126 15.8094 11.3121 20.2252 11.999 22.3821C12.686 20.2252 13.6854 15.8094 15.348 14.3168C15.4921 14.2012 15.6455 14.0976 15.8067 14.0073L17.8232 12.877L15.21 11.3677C15.2081 10.9584 15.1782 10.5567 15.1099 10.1694C15.4027 10.1786 15.6974 10.1518 15.9867 10.0866C16.4308 9.98664 16.855 9.79624 17.2133 9.51376C17.5824 9.22288 17.8688 8.84184 18.0256 8.39752C18.269 7.70768 18.1655 6.9824 17.8532 6.3336L17.6924 5.9996L17.6923 5.99952Z" fill="white"/>
</g>
<defs>
<clipPath id="clip0_415_68">
<rect width="20.16" height="24" fill="white" transform="translate(1.91895)"/>
</clipPath>
</defs>
</svg>
