<?xml version="1.0" encoding="utf-8" ?><svg xmlns="http://www.w3.org/2000/svg" xmlns:xlink="http://www.w3.org/1999/xlink" width="853" height="1280" viewBox="0 0 853 1280"><path fill="#44CE00" d="M292.121 367.165C280.551 351.527 274.061 335.624 276.928 315.759C279.757 296.158 291.349 277.514 307.329 265.858C323.737 253.888 345.925 249.41 365.87 252.613C384.059 255.534 399.504 265.991 410.088 280.893C416.741 290.26 420.624 300.106 424.024 311.012C443.214 305.981 462.408 304.633 482.201 305.845C489.221 306.275 496.219 307.299 503.224 307.688C509.271 288.559 521.628 271.991 539.651 262.581C558.459 252.76 584.959 250.759 605.151 257.197C623.77 263.133 638.078 277.827 646.802 294.907C664.622 329.797 660.737 381.456 648.915 417.597C638.938 448.1 621.343 472.175 596.637 492.454C589.859 498.017 582.671 502.967 575.739 508.313C596.445 532.717 608.39 561.455 620.691 590.662C656.087 674.702 678.279 762.985 708.374 848.852C709.834 853.018 711.543 858.921 715.14 861.793C721.477 866.851 736.622 868.673 744.702 870.862C757.369 874.293 787.662 883.828 785.94 900.814C785.682 903.357 784.14 905.263 782.143 906.732C767.915 917.196 722.25 911.797 705.097 908.623C696.1 906.959 686.606 904.504 681.213 896.533C672.901 884.245 667.232 860.631 662.639 845.933L636.746 764.452C632.024 749.583 628.084 733.571 621.938 719.271C621.425 732.518 622.079 745.804 621.79 759.059C621.285 783.508 618.457 807.854 613.342 831.768C609.325 853.899 604.638 885.514 584.683 899.289C575.272 905.786 564.604 909.665 553.527 912.211C526.302 918.468 498.205 921.836 470.613 926.182L363.857 944.074C319.408 951.586 275.02 959.459 230.698 967.692C208.255 971.788 185.922 976.607 163.338 979.888C155.347 981.049 146.783 982.186 138.777 980.63C115.451 976.097 83.8604 944.811 71.2847 925.724C66.3728 918.268 62.532 909.202 64.3821 900.099C65.1653 896.245 67.1466 892.919 70.4777 890.732C75.6909 887.309 82.2383 887.27 88.1348 888.551C107.973 892.862 128.307 910.981 145.114 912.366C166.559 914.134 214.609 901.236 237.166 896.454C262.797 891.102 288.518 886.193 314.318 881.727C345.28 876.521 376.305 871.7 407.386 867.264C425.936 864.743 444.567 863.099 463.051 860.079C455.186 853.974 446.698 846.725 440.486 838.955C431.599 832.454 419.881 814.138 413.429 805.002C393.863 777.301 375.496 748.908 356.846 720.595C343.762 700.734 330.641 679.487 314.889 661.668C302.899 704.749 292.662 748.523 282.03 791.964C276.212 815.737 271.097 840.173 263.315 863.384C261.745 868.066 259.83 875.218 255.728 878.151C244.545 886.147 177.158 890.797 159.829 891.054C150.834 891.188 141.212 891.074 132.341 889.422C127.257 888.475 121.459 886.637 118.529 882.018C116.571 878.931 116.265 874.624 117.004 871.106C123.199 841.616 188.706 843.856 210.007 829.21C213.685 826.681 215.816 822.581 217.35 818.492C221.539 807.33 223.224 794.283 225.728 782.621C233.314 747.298 239.425 711.833 245.652 676.261C250.433 648.95 257.755 611.984 282.325 595.033C291.981 588.394 303.915 585.953 315.402 588.266C351.821 595.388 377.778 639.14 396.866 667.618L401.868 660.935C422.566 631.703 438.286 600.85 452.826 568.227C458.927 554.54 465.249 540.592 469.474 526.198C454.196 524.539 438.76 525.009 423.459 523.221C378.177 517.931 314.281 501.212 284.266 463.841C273.116 449.959 267.655 433.951 269.584 416.034C271.603 397.286 280.842 381.826 292.121 367.165ZM422.992 708.644C437.503 730.556 451.099 753.061 463.745 776.1C462.998 748.132 464.976 719.609 466.265 691.663C467.034 674.98 466.892 657.002 468.661 640.509C461.049 649.694 455.153 660.493 448.828 670.587C440.73 683.614 432.111 696.31 422.992 708.644Z"/><path fill="#44CE00" d="M613.342 831.768C612.912 823.123 611.377 814.062 610.554 805.386C607.689 774.576 603.742 743.875 598.721 713.342C595.171 693.497 591.349 673.702 587.258 653.962C585.388 644.722 578.738 620.648 579.654 612.649C579.802 611.36 579.835 611.093 580.819 610.298C582.335 611.096 582.964 612.594 583.646 614.097C591.142 630.631 596.222 648.762 602.361 665.872C608.777 683.754 616.266 701.111 621.938 719.271C621.425 732.518 622.079 745.804 621.79 759.059C621.285 783.508 618.457 807.854 613.342 831.768Z"/><path fill="#44CE00" d="M401.868 660.935C403.403 661.938 405.055 662.839 406.703 663.64C414.243 667.302 423.823 668.206 431.782 665.441C437.568 663.431 442.377 659.669 446.024 654.782C454.47 643.466 463.556 612.802 470.635 597.942C470.1 612.02 470.333 626.534 468.661 640.509C461.049 649.694 455.153 660.493 448.828 670.587C440.73 683.614 432.111 696.31 422.992 708.644C420.009 705.005 417.592 700.239 415.076 696.232C409.147 686.606 403.076 677.067 396.866 667.618L401.868 660.935Z"/><path fill="#44CE00" d="M440.486 838.955C445.342 841.419 451.863 845.626 457.516 843.881C460.091 843.086 461.776 841.187 462.868 838.791C465.502 833.012 466.194 824.73 466.445 818.39C470.302 829.684 473.138 841.4 477.17 852.598C486.435 851.221 516.634 847.662 523.632 851.495L523.539 852.392C517.87 855.754 472.607 859.454 463.051 860.079C455.186 853.974 446.698 846.725 440.486 838.955Z"/><path fill="#023014" d="M300.093 417.55L492.709 418.309C522.187 418.418 551.977 417.255 581.416 418.26C584.719 418.373 589.393 418.852 591.588 421.706C592.318 422.656 592.607 423.697 592.403 424.87C592.061 426.844 590.252 428.113 588.752 429.219C586.907 429.473 585.053 429.662 583.195 429.785C568.909 430.762 554.272 430.038 539.942 430.023L460.592 429.964C421.676 430.055 382.76 429.93 343.846 429.589C331.128 429.438 318.142 430.122 305.482 429.487C302.907 429.357 299.588 428.554 297.689 426.713C296.782 425.833 296.226 424.662 296.244 423.386C296.282 420.769 298.301 419.133 300.093 417.55Z"/><path fill="#023014" d="M341.757 297.151C356.792 296.233 369.737 307.653 370.702 322.687C371.668 337.722 360.29 350.704 345.261 351.716C330.165 352.734 317.114 341.293 316.145 326.192C315.175 311.09 326.655 298.074 341.757 297.151Z"/><path fill="#023014" d="M568.968 300.302C583.652 297.321 597.991 306.746 601.082 321.409C604.172 336.073 594.857 350.485 580.219 353.686C565.425 356.921 550.828 347.483 547.705 332.663C544.581 317.843 554.127 303.315 568.968 300.302Z"/><path fill="#023014" d="M475.454 372.835C478.749 372.126 482.007 374.176 482.794 377.454C483.581 380.732 481.608 384.038 478.35 384.902C476.173 385.479 473.855 384.831 472.292 383.21C470.729 381.588 470.167 379.247 470.824 377.093C471.481 374.939 473.252 373.309 475.454 372.835Z"/><path fill="#023014" d="M437.795 372.794C439.93 372.115 442.264 372.64 443.902 374.169C445.539 375.697 446.224 377.99 445.694 380.166C445.164 382.343 443.501 384.064 441.344 384.667C438.089 385.578 434.705 383.713 433.737 380.474C432.769 377.236 434.575 373.819 437.795 372.794Z"/></svg>