<?xml version="1.0" encoding="utf-8" ?><svg xmlns="http://www.w3.org/2000/svg" xmlns:xlink="http://www.w3.org/1999/xlink" width="1024" height="1024" viewBox="0 0 1024 1024"><path fill="#4CC400" d="M479.558 185.153C487.021 186.647 495.066 185.618 502.681 186.425C516.31 187.869 528.695 192.097 540.107 199.723C542.983 201.584 548.503 205.871 550.908 207.191C550.476 209.8 553.67 214.728 555.02 217.186C558.178 222.935 560.519 228.586 562.332 234.9C574.768 235.962 588.191 239.145 600.571 241.428C604.233 236.255 607.742 231.251 612.037 226.553C616.278 224.472 620.212 221.912 624.587 220.073C635.283 215.576 646.675 216.061 657.506 219.832C669.389 223.969 679.398 231.346 687.1 241.28C688.652 243.28 693.231 250.057 694.485 251.201C693.941 253.561 697.948 263.993 698.293 267.456C699.956 284.185 696.479 294.6 691.006 309.579C699.286 322.473 702.57 330.991 703.313 346.66C703.466 349.87 703.332 357.535 703.669 360.242C701.385 368.367 698.665 377.666 693.258 384.275C672.506 409.639 630.008 417.817 598.71 418.048C604.634 422.473 609.71 425.599 616.063 429.282C618.096 430.46 624.05 433.834 625.428 434.955C614.561 443.801 593.558 455.958 584.586 465.839C580.244 463.774 572.433 458.985 568.082 456.474C562.326 496.582 549.777 541.968 535.452 579.982C532.228 588.536 527.256 601.068 522.998 609.072L523.389 609.602C526.93 614.311 531.545 619.117 535.606 623.407C561.669 650.95 587.961 677.419 610.903 707.741C624.412 725.595 628.678 740.604 634.826 761.743C647.211 804.331 660.81 846.486 672.566 889.263L710.412 881.875C721.328 879.735 733.205 877.046 744.292 877.028C751.19 877.201 758.725 878.615 764.649 882.282C766.306 883.307 768.184 885.574 768.287 887.481C768.946 899.631 751.614 908.497 743.139 913.169C718.957 926.499 692.665 935.939 665.241 939.267C658.592 940.055 647.355 939.679 642.056 935.159C639.579 933.047 636.963 927.922 635.706 924.773C629.18 908.414 624.375 890.862 619.357 873.989L596.044 796.362C591.479 781.33 586.686 764.035 579.883 749.891C573.66 736.951 559.879 723.55 549.81 712.87L522.827 684.39C520.472 681.913 513.526 675.077 511.84 672.97C503.323 664.683 495.756 657.556 486.768 649.762C479.736 651.639 470.347 651.082 463.192 650.498C459.678 668.53 453.06 686.926 448.065 704.821C442.898 723.324 437.547 746.284 428.464 763.165C418.906 780.929 397.804 796.705 382.82 809.905C360.417 829.639 335.43 847.527 313.341 867.377C316.259 875.589 318.675 878.762 323.208 885.601C334.724 903.809 357.594 901.919 375.086 911.115C391.142 919.558 386.906 933.464 370.987 937.535C352.708 942.21 315.024 943.457 298.091 935.105C277.014 924.709 256.125 892.831 249.674 870.841C256.141 853.828 277.738 838.648 291.992 827.124L333.498 793.114C351.138 778.559 377.421 759.039 388.498 739.539C397.585 723.543 401.901 697.245 406.424 679.352C410.588 662.878 414.741 646.483 419.929 630.248C416.401 621.265 413.081 612.268 412.921 602.479C412.542 579.294 421.738 555.057 428.16 532.893C433.06 515.984 438.231 498.276 443.683 481.645C445.037 475.496 446.633 471.156 447.703 464.508C422.982 488.845 399.201 513.638 368.488 530.569C338.844 546.911 321.579 522.151 303.918 501.804C281.199 475.628 263.267 445.616 242.491 418.075C211.508 416.69 159.405 410.765 138.932 382.685C138.217 381.705 138.411 380.335 138.767 379.233C141.46 375.728 145.979 375.211 149.967 376.599L149.655 375.189C142.671 369.569 145.824 360.258 154.981 361.881C162.918 363.287 170.688 366.399 178.557 368.496C192.17 372.123 205.253 373.997 219.234 375.283C206.405 366.888 200.253 365.883 195.009 350.442C207.812 342.397 213.225 352.909 224.853 356.943C237.968 361.493 252.356 363.064 264.194 370.749C274.847 377.664 280.874 389.581 288.238 399.519C300.311 415.911 339.778 475.975 355.441 484.97C364.5 479.468 380.649 465.523 389.188 458.406L442.556 413.996C448.996 408.69 461.342 398.237 467.865 394.219C464.352 392.358 460.07 390.613 456.348 389.167C422.881 376.166 386.577 349.556 389.158 309.524C390.221 293.024 396.631 281.124 409.306 270.217C418.189 265.817 419.637 262.997 431.075 258.61C426.281 230.609 436.472 203.524 463.541 191.596C468.235 189.527 475.954 188.683 479.558 185.153Z"/><path fill="#168403" d="M572.524 417.012C581.049 416.935 590.157 417.568 598.71 418.048C604.634 422.473 609.71 425.599 616.063 429.282C618.096 430.46 624.05 433.834 625.428 434.955C614.561 443.801 593.558 455.958 584.586 465.839C580.244 463.774 572.433 458.985 568.082 456.474C570.377 448.356 572.288 425.802 572.524 417.012Z"/><path fill="#168403" d="M447.703 464.508C451.725 458.756 460.931 449.674 466.207 445.112C461.748 455.873 452.165 473.497 443.683 481.645C445.037 475.496 446.633 471.156 447.703 464.508Z"/><path fill="#168403" d="M149.655 375.189C156.235 375.813 196.462 387.977 202.421 391.051C187.639 391.014 163.437 383.113 149.967 376.599L149.655 375.189Z"/><path fill="#168403" d="M486.768 649.762L494.151 648.171C497.07 651.89 510.466 669.58 511.84 672.97C503.323 664.683 495.756 657.556 486.768 649.762Z"/><path fill="#043903" d="M434.159 310.991C443.45 311.329 457.833 315.206 467.531 317.327L517.492 327.969L613.565 347.971C629.077 351.106 644.63 354.006 660.161 357.072C663.353 357.702 668.781 360.082 668.198 364.272C667.904 366.379 666.316 367.733 664.769 369.045C654.732 368.605 641.528 365.234 631.346 363.096L588.817 354.398L490.724 333.791C473.343 330.106 455.974 326.368 438.599 322.657C435.566 322.01 430.464 319.958 430.651 316.105C430.757 313.917 432.673 312.377 434.159 310.991Z"/><path fill="#043903" d="M645.8 254.771C660.021 253.448 672.632 263.882 673.995 278.099C675.357 292.316 664.958 304.956 650.745 306.358C636.476 307.765 623.776 297.317 622.408 283.043C621.04 268.77 631.524 256.1 645.8 254.771Z"/><path fill="#043903" d="M484.255 221.22C498.364 218.764 511.774 228.266 514.133 242.392C516.492 256.517 506.897 269.862 492.756 272.123C478.752 274.363 465.565 264.881 463.229 250.893C460.893 236.905 470.283 223.653 484.255 221.22Z"/><path fill="#043903" d="M589.986 308.77C591.869 308.285 593.867 308.868 595.193 310.289C596.52 311.711 596.964 313.744 596.35 315.589C595.736 317.434 594.163 318.796 592.249 319.139C589.438 319.643 586.733 317.834 586.124 315.044C585.515 312.255 587.221 309.483 589.986 308.77Z"/><path fill="#043903" d="M552.646 300.238C555.369 299.467 558.211 300.997 559.068 303.693C559.925 306.389 558.486 309.279 555.819 310.221C554.016 310.857 552.01 310.461 550.584 309.188C549.158 307.915 548.539 305.966 548.968 304.103C549.398 302.241 550.807 300.759 552.646 300.238Z"/><path fill="#6DF100" fill-opacity="0.98823529" d="M117.712 71.7509L479.558 185.153C475.954 188.683 468.235 189.527 463.541 191.596C436.472 203.524 426.281 230.609 431.075 258.61C419.637 262.997 418.189 265.817 409.306 270.217C399.531 266.526 380.582 261.472 370.07 258.271L295.933 235.296L164.24 194.073C138.848 186.096 113.363 177.792 87.8667 170.212C91.9718 156.109 96.3512 142.122 100.74 128.106C98.3143 126.972 95.7839 126.085 93.238 125.262C81.1869 121.364 69.0657 117.576 56.9095 114.028C57.755 112.155 59.5822 105.707 60.3746 103.296C72.2212 107.213 93.1185 112.799 103.845 117.168C108.144 102.983 112.892 85.5675 117.712 71.7509Z"/><path fill="#6DF100" fill-opacity="0.98823529" d="M694.485 251.201C718.81 259.481 744.958 267.125 769.642 274.848L883.214 310.482C902.865 316.542 923.255 322.253 942.699 328.751C938.864 340.553 935.439 352.471 931.758 364.321C931.057 366.576 930.227 369.176 929.259 371.321C944.965 376.338 962.423 382.145 978.248 386.41L974.68 397.064C960.376 393.694 941.457 386.437 926.353 382.043C924.992 387.832 922.437 395.113 920.592 400.892C917.982 409.071 915.488 417.377 912.823 425.516C860.865 408.186 807.128 393.35 755.375 376.176C740.688 372.292 724.09 366.721 709.421 362.123L703.669 360.242C703.332 357.535 703.466 349.87 703.313 346.66C702.57 330.991 699.286 322.473 691.006 309.579C696.479 294.6 699.956 284.185 698.293 267.456C697.948 263.993 693.941 253.561 694.485 251.201Z"/><path fill="#4CC400" d="M709.421 362.123C724.09 366.721 740.688 372.292 755.375 376.176C754.684 378.488 752.191 386.563 751.899 388.555C743.972 414.073 738.095 440.125 729.157 465.272C720.307 490.173 712.338 520.841 678.168 508.682C646.23 497.318 614.307 481.996 584.586 465.839C593.558 455.958 614.561 443.801 625.428 434.955C639.829 442.735 653.862 451.084 668.578 458.295C672.252 460.095 676.414 462.07 679.841 464.216C683.812 452.771 687.239 439.976 690.614 428.238L706.664 372.389L709.421 362.123Z"/><path fill="#168403" d="M709.421 362.123C724.09 366.721 740.688 372.292 755.375 376.176C754.684 378.488 752.191 386.563 751.899 388.555L706.664 372.389L709.421 362.123Z"/><path fill="#6DF100" fill-opacity="0.98823529" d="M550.908 207.191C570.429 213.574 592.403 220.719 612.037 226.553C607.742 231.251 604.233 236.255 600.571 241.428C588.191 239.145 574.768 235.962 562.332 234.9C560.519 228.586 558.178 222.935 555.02 217.186C553.67 214.728 550.476 209.8 550.908 207.191Z"/></svg>