<?xml version="1.0" encoding="utf-8" ?><svg xmlns="http://www.w3.org/2000/svg" xmlns:xlink="http://www.w3.org/1999/xlink" width="1024" height="1024" viewBox="0 0 1024 1024"><path d="M384.59 512.547C379.793 509.541 374.454 507.177 369.565 504.229C355.049 495.477 342.51 484.917 330.998 472.504C316.35 456.709 307.058 437.848 301.384 417.234C300.353 413.487 298.839 409.62 298.37 405.752C297.765 400.77 298.119 395.374 298.102 390.352C298.068 380.472 297.966 370.551 298.401 360.679C299.478 336.256 309.813 313.688 315.079 290.155C317.305 280.208 318.634 270.049 320.548 260.039C322.304 250.853 324.444 241.712 326.322 232.545C331.41 207.707 344.656 136.796 362.458 121.173C365.763 118.272 369.798 116.117 374.32 116.57C395.923 118.735 418.273 151.771 430.274 168.19C436.018 176.047 442.001 183.739 447.344 191.88C453.139 200.709 458.062 210.061 464.548 218.422C476.999 215.822 483.126 215.186 495.736 214.995C510.842 214.765 520.173 215.54 535.022 218.032C539.833 209.818 543.387 200.13 547.793 191.57C557.323 173.056 580.103 133.588 596.927 122.013C601.748 118.696 607.543 116.495 613.437 117.756C647.839 125.119 678.895 242.535 686.501 275.572C689.11 286.906 691.092 298.535 692.888 310.023C695.313 325.537 697.493 341.398 698.426 357.081C698.551 359.183 698.318 370.874 698.376 371.043C698.543 371.529 698.945 371.9 699.23 372.328C699.257 376.474 697.683 381.097 697.424 385.107C694.812 425.551 678.926 461.299 647.704 487.594C640.246 493.875 632.135 499.094 623.866 504.44C629.375 505.405 636.394 505.377 641.429 506.94C645.966 508.348 679.267 523.934 681.281 521.655C684.998 517.453 696.587 496.254 698.062 491.195C697.408 490.32 697.754 490.581 696.94 490.067C690.406 485.919 682.549 482.218 677.115 476.691C672.866 472.368 677.632 465.063 679.845 460.867C680.568 459.494 682.81 455.419 683.819 454.768L686.612 452.992C700.225 452.805 707.178 459.168 719.344 463.667L720.109 463.947C739.525 429.919 759.14 394.876 777.687 360.324C778.714 357.871 777.92 352.448 778.709 350.268C781.784 341.78 787.835 326.279 795.56 321.726C816.151 309.589 849.772 331.834 836.834 356.168C833.203 362.998 829.2 373.76 822.336 377.458L821.751 377.766C812.305 393.067 802.388 413.726 793.566 429.926C783.46 448.483 771.192 469.55 762.11 488.311C769.147 496.464 792.376 507.301 797.766 515.246C796.969 520.924 791.475 540.573 783.129 539.596C776.718 538.846 757.349 524.676 751.02 525.164C746.763 528.144 732.89 559.515 727.254 566.915C729.667 573.982 734.024 581.073 736.675 588.337C746.04 613.996 751.331 642.228 754.425 669.332C757.825 699.106 758.225 729.558 757.642 759.471C757.557 763.842 756.421 770.461 755.672 774.959C753.142 790.146 747.592 807.065 736.827 818.449C736.009 819.503 729.817 825.142 729.749 826.309C729.333 833.436 730.668 840.494 730.901 847.63C731.086 853.29 731.332 858.779 731.283 864.428C744.151 870.174 747.667 870.167 761.798 870.24C798.858 870.433 832.05 844.619 849.753 813.376C857.732 799.293 865.696 786.616 880.139 778.1C882.429 776.75 885.287 776.171 887.834 775.007C892.638 773.258 905.826 773.295 910.555 775.355C936.992 787.59 926.397 827.568 916.948 847.801C897.049 890.411 860.873 921.306 817.151 937.506C774.097 953.458 721.117 950.493 681.571 926.196C673.776 929.627 672.823 930.407 664.197 932.47C664.271 935.375 664.408 938.26 664.648 941.156C666.963 969.04 671.976 996.476 676.578 1024L665.21 1024L549.183 1024L539.437 1024C538.046 1018.87 537.53 1012.77 536.301 1006.49C531.788 983.44 528.931 958.729 523.445 936.016C522.865 933.616 506.737 932.352 502.053 930.864L501.456 930.668C502.917 950.337 501.383 971.631 502.91 991.505C503.744 1002.35 501.841 1013.02 504.888 1024L493.474 1024L381.623 1024L370.857 1024C371.383 1017.35 369.359 1008.67 368.622 1001.7L363.65 952.005C363.004 944.987 362.587 937.847 362.239 930.805C361.966 925.274 362.248 920.278 361.163 914.805C350.054 924.678 343.849 924.501 333.416 914.397C322.812 921.164 314.069 921.635 304.539 912.504C287.617 896.292 290.002 870.369 291.226 849.082C292.256 831.154 293.833 813.202 296.142 795.391C300.962 747.145 307.773 699.292 318.592 651.98C327.234 614.648 337.778 576.107 359.416 543.986C365.017 535.671 374.266 528.519 379.03 519.107C379.859 517.469 383.214 514.023 384.59 512.547Z"/><path fill="#FEFEFD" d="M369.07 774.831C381 771.628 520.028 655.189 537.297 640.184C543.06 635.176 559.232 619.586 565.843 613.671C566.943 622.556 567.795 631.885 569.712 640.556C577.999 678.043 596.666 714.391 623.725 741.793C627.088 745.199 630.887 748.472 634.109 751.981C635.675 770.687 634.832 794.394 633.307 813.385C632.416 824.484 627.642 837.302 625.325 848.206C620.103 866.36 618.905 889.837 634.463 903.546C636.349 905.208 639.167 906.885 641.361 908.214C644.282 919.138 645.544 921.041 653.669 928.402C655.32 954.858 659.616 981.475 663.151 1007.74C663.867 1013.06 664.722 1018.68 665.21 1024L549.183 1024L539.437 1024C538.046 1018.87 537.53 1012.77 536.301 1006.49C531.788 983.44 528.931 958.729 523.445 936.016C522.865 933.616 506.737 932.352 502.053 930.864L501.456 930.668C502.917 950.337 501.383 971.631 502.91 991.505C503.744 1002.35 501.841 1013.02 504.888 1024L493.474 1024L381.623 1024C381.389 1017.64 380.711 1010.82 379.918 1004.5C370.341 928.195 368.059 851.674 369.07 774.831Z"/><path d="M491.743 926.973C485.502 925.329 479.235 922.969 473.089 920.352C467.869 917.866 457.519 915.363 457.876 908.037C458.049 904.491 462.998 905 465.321 905.892C487.265 914.315 509.825 921.928 533.032 926.33C537.383 955.134 543.026 983.71 547.528 1012.48C548.117 1016.24 548.785 1020.23 549.183 1024L539.437 1024C538.046 1018.87 537.53 1012.77 536.301 1006.49C531.788 983.44 528.931 958.729 523.445 936.016C522.865 933.616 506.737 932.352 502.053 930.864L501.456 930.668C502.917 950.337 501.383 971.631 502.91 991.505C503.744 1002.35 501.841 1013.02 504.888 1024L493.474 1024C493.092 993.328 490.45 957.124 491.743 926.973Z"/><path fill="#113D60" d="M887.834 775.007C892.638 773.258 905.826 773.295 910.555 775.355C910.475 775.389 888.953 775.209 887.834 775.007Z"/><path fill="#FEFEFD" d="M608.276 131.041C617.137 130.437 623.157 140.452 627.265 147.247C650.706 186.448 664.688 234.309 674.757 278.63C690.001 345.726 700.342 428.522 640.305 477.675C621.174 493.339 602.356 503.691 578.997 511.814C571.99 514.251 561.604 514.907 556.67 520.046C555.065 521.888 557.608 526.692 559.552 527.012C566.988 528.235 579.389 522.992 586.194 520.685C583.661 524.796 580.407 528.52 577.592 532.969C572.515 540.997 570.767 553.473 565.851 560.923C564.198 563.427 556.18 569.651 553.54 571.922L531.755 590.966C524.834 597.137 517.842 603.227 510.922 609.392C486.347 631.279 460.326 651.317 434.821 672.092L371.78 723.942C375.862 689.108 382.711 655.687 389.398 621.385C396.933 590.393 404.779 555.441 420.139 526.78C421.127 524.936 424.449 526.948 427.083 523.674C428.439 517.198 424.102 515.158 418.943 513.416C410.042 510.409 401.199 507.348 392.693 503.319C367.147 491.219 342.679 471.515 327.641 447.439C306.967 414.341 305.092 374.292 314.289 337.09C317.796 322.903 323.346 309.19 326.593 294.93C330.396 278.229 333.007 261.242 336.208 244.418C338.351 233.156 340.979 221.916 343.541 210.741C346.896 196.111 360.081 139.381 371.278 132.949C373.404 131.728 375.799 132.01 378.058 132.697C397.465 138.599 441.203 203.781 451.834 222.762C448.959 224.222 443.23 228.175 445.705 232.937C448.248 236.451 452.83 234.846 455.704 233.884C480.595 225.549 516.037 224.268 541.125 232.587C541.28 232.068 541.657 230.808 541.898 230.324C553.881 206.277 584.242 141.677 608.276 131.041Z"/><path d="M440.571 384.659C446.704 384.154 453.307 384.256 459.484 384.48C464.572 384.665 474.159 383.879 477.342 388.295C479.221 395.275 465.956 399.64 463.42 405.007C463.088 405.71 462.824 406.465 463.404 407.019C467.822 411.245 476.494 414.854 482.084 415.946C491.435 417.948 500.521 417.043 508.675 411.747C511.728 409.764 514.796 406.033 518.68 407.41C522.455 408.749 523.98 413.586 522.504 417.112C520.358 422.241 514.221 424.317 509.424 426.175C506.074 439.935 497.65 452.825 487.832 462.867C484.632 465.966 480.144 469.28 475.94 470.821C448.632 480.827 431.318 446.481 423.857 426.762C419.948 424.599 410.488 420.364 410.993 415.045C411.284 411.972 417.227 407.794 420.037 409.64C427.203 414.346 434.419 419.885 443.218 414.723C445.21 413.546 449.361 408.379 449.153 406.322C448.491 399.768 435.56 397.668 436.895 389.749C437.304 387.227 438.479 386.067 440.571 384.659Z"/><path fill="#FEFEFD" d="M457.165 416.4C471 426.846 481.391 429.187 497.812 428.936C492.946 440.336 485.984 452.134 475.193 458.863C455.565 467.399 442.668 442.682 435.841 428.665C446.241 426.546 450.137 424.497 457.165 416.4Z"/><path d="M560.196 333.096C582.776 331.327 586.955 364.977 571.462 375.974C569.829 377.133 567.579 377.791 565.672 378.408C540.864 380.504 538.163 339.636 560.196 333.096Z"/><path d="M389.555 331.16C414.888 329.165 416.967 369.248 395.803 376.628C370.194 379.841 368.745 337.603 389.555 331.16Z"/><path d="M558.095 285.193C567.171 284.563 575.387 285.804 583.925 289.15C587.919 290.716 604.743 299.441 604.968 304.232C605.691 319.63 591.137 304.088 585.551 301.042C573.389 295.053 562.608 293.719 549.59 298.592C545.985 299.626 536.602 306.921 534.714 300.004C531.755 289.165 551.685 285.935 558.095 285.193Z"/><path d="M385.454 286.184C396.609 284.748 410.259 286.26 419.607 293.197C423.418 295.858 424.712 300.568 421.611 304.294C419.859 306.398 413.332 302.473 410.995 301.404C403.91 298.162 398.947 296.841 391.155 296.709C377.103 297.313 371.747 302.248 360.434 308.706C357.902 310.151 352.334 305.141 357.032 299.953C364.813 291.361 373.914 287.67 385.454 286.184Z"/><path fill="#FEFEFD" d="M644.777 539.092C651.5 538.072 656.266 544.422 660.087 549.348C688.58 586.081 701.923 632.619 711.382 677.442C712.889 684.58 714.997 692.975 715.819 700.102C719.708 733.828 718.707 768.027 719.216 801.915C719.174 824.594 721.534 847.385 719.701 870.018C718.229 888.204 709.668 911.497 690.711 917.669C696.8 908.47 701.873 897.469 701.042 886.156C700.826 883.209 697.879 880.479 694.865 880.903C692.861 882.137 691.445 889.115 690.771 891.738C688.726 899.703 686.651 905.272 681.804 911.895C670.099 925.448 656.681 923.436 651.465 905.864C657.423 901.247 659.564 897.071 662.429 889.457C663.311 887.112 669.708 868.044 658.301 871.291C654.914 872.255 653.049 885.06 651.503 888.691C649.289 893.891 649.983 893.682 644.208 896.499C621.238 886.394 639.241 844.839 641.656 827.749C646.422 794.031 645.74 753.814 640.995 720.341C634.108 673.842 613.383 628.764 619.483 580.959C621.689 563.666 626.392 545.139 644.777 539.092Z"/><path fill="#FEFEFD" d="M360.872 560.928C361.79 561.945 359.486 571.686 359.187 573.732C354.436 606.145 354.955 639.262 359.931 671.616C361.204 679.894 364.537 688.956 364.494 697.287C364.07 702.641 363.693 708.614 362.785 713.882C361.434 721.725 362.041 731.335 357.601 737.993C357.308 746.999 356.994 756.438 357.083 765.443C357.263 769.622 358.752 773.549 358.781 777.748C359.027 813.097 357.863 848.425 359.486 883.756C359.701 888.443 359.837 893.487 358.787 898.129C357.097 905.6 349.351 916.021 341.868 907.484C336.051 900.565 332.9 891.328 331.33 882.497C330.314 876.782 332.554 868.767 329.806 863.462C328.493 860.928 325.336 860.308 323.165 862.391C320.33 865.11 320.527 869.606 320.366 873.303C320.434 881.65 320.987 890.634 324.636 898.298C325.757 900.652 327.809 903.947 327.099 906.388C319.063 912.777 309.17 903.102 306.201 895.698C296.196 870.75 302.481 841.986 304.778 815.97C310.263 753.842 318.741 691.987 334.534 631.564C340.292 609.62 348.988 580.175 360.872 560.928Z"/><path fill="#FEFEFD" d="M896.732 784.64C918.56 783.449 918.391 809.606 914.403 824.338C904.783 859.871 876.968 891.612 846.295 911.143C807.792 935.659 766.999 941.741 722.836 931.729C716.663 930.228 708.839 927.182 703.038 924.657C718.995 911.229 726.669 896.689 728.769 875.626C776.417 893.618 824.313 869.647 852.215 829.939C864.603 812.309 872.313 788.07 896.732 784.64Z"/><path fill="#04AF06" d="M631.948 735.807C627.832 730.565 622.876 725.763 618.209 719.796C602.85 700.156 589.25 674.573 582.88 650.352C574.077 616.881 568.626 570.003 586.518 538.766C591.439 530.174 603.707 517.724 613.605 515.61C625.893 512.986 640.722 515.572 651.351 522.152C650.011 523.766 650.029 523.655 649.632 525.692C629.399 529.762 617.015 546.539 611.952 565.463C600.874 606.87 615.305 649.762 624.384 690.128C627.613 704.482 631.695 721.306 631.948 735.807Z"/><path fill="#23221F" d="M564.437 573.998C565.857 576.972 564.792 600.216 564.31 604.869C560.028 609.742 554.018 613.798 549.323 618.308C536.803 630.333 523.265 640.779 509.869 651.744L427.822 718.265C414.107 729.168 400.533 740.515 386.725 751.261C380.482 756.119 375.415 760.738 368.532 764.918C366.989 762.83 369.091 739.139 371.31 737.207C391.025 719.354 412.679 703.453 433.019 686.367C456.631 666.531 480.408 646.437 503.493 625.984C507.368 622.551 512.462 619.193 515.972 615.699C531.107 600.633 548.472 587.894 564.437 573.998Z"/><path fill="#04AF06" d="M667.887 528.473C678.672 533.039 687.75 537.96 696.736 545.693C728.506 573.033 738.177 620.18 743.469 659.986C744.625 668.681 745.915 678.328 746.559 687.032L742.948 689.471C736.493 693.175 732.449 693.211 725.175 693.634C724.417 690.748 723.893 687.477 723.297 684.541C714.45 640.979 702.48 597.292 679.516 558.842C676.085 553.097 671.265 547.964 667.897 541.869L667.517 541.17C667.471 537.091 667.734 532.582 667.887 528.473Z"/><path fill="#23221F" d="M784.194 368.214C786.065 368.504 794.046 373.969 797.02 375.297C801.765 377.417 803.874 378.07 809.013 379.42C806.899 383.36 805.229 387.563 803.044 391.543C786.447 421.781 769.076 451.849 754.735 483.231C754.446 483.352 754.157 483.473 753.867 483.594C750.082 482.08 729.304 470.653 728.875 467.514C730.77 462.413 738.192 450.745 741.195 445.41C753.837 422.953 766.465 400.478 778.565 377.72C780.275 374.504 781.944 371.074 784.194 368.214Z"/><path fill="#04AF06" d="M397.761 517.82C402.362 519.335 406.182 520.8 410.653 522.585C395.758 551.081 387.657 584.583 380.223 615.821C377.292 628.139 375.134 640.732 372.207 653.068C371.373 658.52 370.466 663.975 369.958 669.466C369.395 665.17 368.714 660.616 368.256 656.331C367.145 652.939 367.055 643.625 366.801 639.704C364.72 607.67 365.796 535.036 397.761 517.82Z"/><path fill="#549739" d="M368.256 656.331L368.869 655.934L369.198 657.502L369.66 657.748C371.006 656.043 370.545 654.427 372.207 653.068C371.373 658.52 370.466 663.975 369.958 669.466C369.395 665.17 368.714 660.616 368.256 656.331Z"/><path fill="#04AF06" d="M746.518 698.51C746.848 698.566 747.109 698.825 747.393 699.001C748.114 702.637 748.079 708.45 748.259 712.267C749.535 739.331 750.421 791.556 729.991 811.338C728.195 804.315 729.065 774.538 728.947 765.48C728.672 744.373 728.149 724.897 726.913 703.73C734.342 703.194 739.696 701.1 746.518 698.51Z"/><path fill="#23221F" d="M691.637 460.979C704.65 463.545 734.253 483.788 746.115 491.178L771.787 507.497C776.66 510.607 784.439 514.837 788.208 518.871C789.124 521.842 786.769 527.569 785.401 530.178C783.655 530.773 783.87 530.474 781.744 530.009C755.352 515.652 729.24 499.765 703.363 484.497C696.458 480.423 690.088 475.927 682.974 471.966C685.971 465.874 685.994 464.401 691.637 460.979Z"/><path fill="#23221F" d="M705.955 498.863C718.264 504.677 729.262 512.21 741.158 519.141C736.062 529.376 726.265 545.827 722.714 555.353L722.014 556.518C720.32 556.078 717.217 552.217 716.111 550.835C708.583 541.423 698.929 534.364 689.49 527.009C696.489 517.581 700.052 507.223 705.955 498.863Z"/><path fill="#23221F" d="M805.952 329.143C824.189 327.946 834.534 343.942 824.933 359.488C820.754 366.256 819.963 370.173 811.156 370.054C800.689 368.488 793.35 363.877 788.005 354.662C789.899 345.368 795.552 330.878 805.952 329.143Z"/><path fill="#549739" d="M651.351 522.152C655.617 525.385 656.954 526.935 659.774 531.66C656.633 529.269 653.4 526.188 649.632 525.692C650.029 523.655 650.011 523.766 651.351 522.152Z"/></svg>