<?xml version="1.0" encoding="utf-8" ?><svg xmlns="http://www.w3.org/2000/svg" xmlns:xlink="http://www.w3.org/1999/xlink" width="400" height="400" viewBox="0 0 400 400"><path fill="#01C0FF" d="M0 0L400 0L400 400L360.295 400L304.699 400L245.949 400L173.636 400L115.295 400L80.1242 400L70.5205 400L21.0071 400L0 400L0 0Z"/><path fill="#62A24D" d="M34.1909 398.722C33.9632 394.348 36.4 384.916 37.3591 380.533C43.9075 350.606 60.2223 318.939 86.029 301.15C89.0412 299.069 92.1803 297.177 95.4279 295.487C98.87 293.707 108.903 290.311 110.829 287.827C111.749 286.64 112.011 284.854 111.815 283.397C111.263 279.306 104.609 276.512 101.55 274.049C95.8468 269.458 90.6418 264.14 86.9012 257.799C75.9646 239.257 79.5294 215.818 86.8194 196.676C87.972 193.649 89.324 190.617 90.7863 187.727C92.6812 183.981 96.6466 178.544 97.0239 174.385C97.2886 171.466 96.47 168.027 96.167 165.109C94.6841 150.83 97.1119 134.358 106.451 122.962C114.039 113.703 126.452 108.542 138.21 107.397C152.254 106.077 165.984 112.095 174.53 123.316C176.971 126.512 179.003 130.48 181.868 133.171C184.218 135.38 190.485 132.66 193.535 131.976C202.31 130.005 211.479 130.315 220.28 132.029C224.263 132.804 228.377 134.43 232.447 134.231C236.03 134.009 237.882 127.038 239.13 124.19C241.057 119.868 243.523 115.806 246.471 112.104C251.633 105.653 260.191 99.1954 268.289 98.781C299.208 97.1989 319.963 121.227 312.812 151.759C312.24 154.201 310.026 160.793 310.792 162.726C311.921 165.572 317.155 168.845 319.394 171.061C329.885 180.859 338.029 192.999 339.576 207.527C342.317 232.302 328.045 254.844 312.565 272.828C308.173 277.93 303.236 282.231 298.602 287.045C297.309 288.389 296.223 291.224 297.348 292.941C300.523 297.787 305.64 301.457 309.696 305.917C312.829 309.293 315.688 312.913 318.248 316.742C332.926 338.453 341.512 363.696 346.463 389.299C347.036 392.262 347.753 395.625 348.054 398.607C351.821 398.937 356.153 398.952 359.948 399.013L360.295 400L304.699 400L245.949 400L173.636 400L115.295 400L80.1242 400L70.5205 400L21.0071 400L21.4095 399.072C24.7259 398.665 30.6673 398.78 34.1909 398.722Z"/><path fill="#D6E8B5" d="M110.673 343.427C133.526 320.024 157.435 305.047 191.232 304.336C219.521 303.742 245.398 315.426 265.618 335.01C269.471 338.742 272.983 342.841 276.79 346.619C279.135 349.612 281.667 352.449 283.877 355.519C294.039 369.639 297.911 382.352 302.214 398.712L303.577 398.781C304.264 399.237 304.274 399.273 304.699 400L245.949 400L173.636 400L115.295 400L80.1242 400C80.8324 398.988 80.9765 399.033 82.1601 398.853L82.5551 398.608C82.8316 397.22 83.8449 394.095 84.2786 392.639C88.1985 379.721 94.015 367.457 101.538 356.248C104.405 351.939 108.183 347.586 110.673 343.427Z"/><path fill="#BECAD9" d="M181.651 398.792C193.196 398.498 204.829 398.711 216.368 399.007C220.272 399.107 224.885 398.752 228.871 398.691C234.473 398.637 240.075 398.735 245.672 398.984L245.597 399.473C245.729 399.635 245.91 399.79 245.949 400L173.636 400C176.884 398.654 178.919 399.544 181.651 398.792Z"/><path fill="#B4C9CF" d="M112.53 398.786C117.972 399.077 125.432 398.713 131.118 398.705L158.135 398.758C165.763 398.74 174.016 398.585 181.651 398.792C178.919 399.544 176.884 398.654 173.636 400L115.295 400C114.097 399.171 113.946 400.055 112.53 398.786Z"/><path fill="#B4C9CF" d="M302.214 398.712L303.577 398.781C304.264 399.237 304.274 399.273 304.699 400L245.949 400C245.91 399.79 245.729 399.635 245.597 399.473L245.672 398.984C256.166 399.067 266.83 398.487 277.357 398.942C282.459 399.163 298.215 399.83 302.214 398.712Z"/><path fill="#BECAD9" d="M82.1601 398.853L82.5551 398.608C84.2844 399.834 90.0314 398.716 92.4663 398.722C99.1548 398.738 105.838 398.626 112.53 398.786C113.946 400.055 114.097 399.171 115.295 400L80.1242 400C80.8324 398.988 80.9765 399.033 82.1601 398.853Z"/><path d="M69.3789 398.447C70.446 395.885 71.1336 393.072 71.9909 390.424C73.8551 384.665 75.7495 378.89 78.0792 373.299C81.2342 365.727 95.183 339.308 102.073 336.731C103.404 336.233 104.99 336.214 106.272 336.86C108.828 338.147 109.819 340.905 110.673 343.427C108.183 347.586 104.405 351.939 101.538 356.248C94.015 367.457 88.1985 379.721 84.2786 392.639C83.8449 394.095 82.8316 397.22 82.5551 398.608L82.1601 398.853C80.9765 399.033 80.8324 398.988 80.1242 400L70.5205 400C70.1366 399.511 70.1592 399.199 70.0785 398.583L69.3789 398.447Z"/><path fill="#A29BE0" d="M70.0785 398.583C72.0819 398.619 80.9087 398.646 82.1601 398.853C80.9765 399.033 80.8324 398.988 80.1242 400L70.5205 400C70.1366 399.511 70.1592 399.199 70.0785 398.583Z"/><path d="M276.79 346.619C277.26 345.293 276.824 344.948 276.896 343.798C277.122 340.686 281.099 337.466 284.162 338.396C287.226 339.325 289.645 342.464 291.546 344.878C302.17 358.364 308.89 374.568 313.051 391.123C313.636 393.449 314.683 396.383 315.076 398.667C311.491 398.854 307.213 398.766 303.577 398.781L302.214 398.712C297.911 382.352 294.039 369.639 283.877 355.519C281.667 352.449 279.135 349.612 276.79 346.619Z"/><path fill="#B4C9CF" d="M348.054 398.607C351.821 398.937 356.153 398.952 359.948 399.013L360.295 400L304.699 400C304.274 399.273 304.264 399.237 303.577 398.781C307.213 398.766 311.491 398.854 315.076 398.667C326.162 398.81 337.046 398.554 348.054 398.607Z"/><path fill="#B4C9CF" d="M69.3789 398.447L70.0785 398.583C70.1592 399.199 70.1366 399.511 70.5205 400L21.0071 400L21.4095 399.072C24.7259 398.665 30.6673 398.78 34.1909 398.722L55.2906 398.721C57.5131 398.731 67.6826 398.893 69.3789 398.447Z"/><path d="M180.491 179.045C184.038 178.899 191.654 184.916 196.379 186.631C205.259 189.855 213.84 192.165 223.364 192.16C231.229 192.146 239.007 190.514 246.214 187.366C248.098 186.547 249.463 185.826 251.242 184.804C254.117 183.154 258.345 179.026 261.641 179.113C263.382 179.168 265.015 179.971 266.123 181.316C269.966 185.893 266.64 189.284 263.09 191.999C257.03 196.724 249.257 199.973 242.087 202.176C226.734 206.848 209.692 205.158 194.864 199.262C189.602 197.169 176.929 192.699 174.771 186.596C173.607 183.304 177.041 179.808 180.491 179.045Z"/><path d="M273.168 117.65C281.751 116.365 289.74 122.311 290.975 130.902C292.209 139.492 286.216 147.447 277.619 148.63C269.092 149.804 261.217 143.872 259.993 135.353C258.769 126.833 264.655 118.924 273.168 117.65Z"/><path fill="#FEFEFE" d="M277.835 122.238C281.131 121.761 284.204 124.004 284.752 127.289C285.301 130.574 283.124 133.694 279.852 134.314C277.672 134.727 275.439 133.928 274.015 132.225C272.592 130.523 272.201 128.183 272.994 126.111C273.786 124.038 275.639 122.556 277.835 122.238Z"/><path fill="#FEFEFE" d="M267.221 130.881C269.417 130.558 271.459 132.081 271.773 134.279C272.088 136.477 270.557 138.512 268.358 138.818C266.171 139.122 264.15 137.601 263.837 135.416C263.524 133.23 265.037 131.203 267.221 130.881Z"/><path d="M135.897 123.906C144.383 122.288 152.568 127.874 154.156 136.366C155.744 144.857 150.129 153.023 141.632 154.58C133.177 156.13 125.062 150.549 123.482 142.101C121.903 133.652 127.453 125.516 135.897 123.906Z"/><path fill="#FEFEFE" d="M141.026 128.017C144.218 127.932 146.614 129.37 147.69 132.516C148.31 134.298 148.144 136.259 147.232 137.911C146.315 139.57 145.125 140.459 143.356 141.013C142.4 141.046 141.363 141.097 140.443 140.817C138.804 140.309 137.451 139.142 136.708 137.596C135.935 135.947 135.841 134.061 136.447 132.344C137.309 129.933 138.92 129.02 141.026 128.017Z"/><path fill="#FEFEFE" d="M129.956 137.185C131.327 136.759 132.82 137.109 133.858 138.099C134.897 139.09 135.317 140.565 134.955 141.954C134.594 143.343 133.509 144.427 132.119 144.786C130.042 145.323 127.916 144.104 127.328 142.041C126.741 139.977 127.908 137.822 129.956 137.185Z"/><path d="M227 120.603C240.901 90.7653 264.853 77.0909 296.85 92.0584C319.82 102.803 329.029 123.439 325.995 148.093C325.565 151.633 324.861 155.195 324.402 158.718C327.355 161.85 330.602 164.514 333.261 167.794C345.387 182.756 351.827 201.972 350.868 221.236C350.636 225.901 350.369 229.638 349.09 234.218C343.62 253.823 326.486 276.746 311.799 290.735C311.647 290.882 311.491 291.025 311.332 291.166C317.996 296.962 324.155 303.139 329.15 310.621C337.94 323.787 344.157 339.566 349.363 354.447C351.073 359.336 352.197 364.654 353.641 369.591C356.413 379.068 358.657 388.572 359.96 398.369C359.986 398.559 359.962 398.822 359.948 399.013C356.153 398.952 351.821 398.937 348.054 398.607C347.753 395.625 347.036 392.262 346.463 389.299C341.512 363.696 332.926 338.453 318.248 316.742C315.688 312.913 312.829 309.293 309.696 305.917C305.64 301.457 300.523 297.787 297.348 292.941C296.223 291.224 297.309 288.389 298.602 287.045C303.236 282.231 308.173 277.93 312.565 272.828C328.045 254.844 342.317 232.302 339.576 207.527C338.029 192.999 329.885 180.859 319.394 171.061C317.155 168.845 311.921 165.572 310.792 162.726C310.026 160.793 312.24 154.201 312.812 151.759C319.963 121.227 299.208 97.1989 268.289 98.781C260.191 99.1954 251.633 105.653 246.471 112.104C243.523 115.806 241.057 119.868 239.13 124.19C237.882 127.038 236.03 134.009 232.447 134.231C228.377 134.43 224.263 132.804 220.28 132.029C211.479 130.315 202.31 130.005 193.535 131.976C190.485 132.66 184.218 135.38 181.868 133.171C179.003 130.48 176.971 126.512 174.53 123.316C165.984 112.095 152.254 106.077 138.21 107.397C126.452 108.542 114.039 113.703 106.451 122.962C97.1119 134.358 94.6841 150.83 96.167 165.109C96.47 168.027 97.2886 171.466 97.0239 174.385C96.6466 178.544 92.6812 183.981 90.7863 187.727C89.324 190.617 87.972 193.649 86.8194 196.676C79.5294 215.818 75.9646 239.257 86.9012 257.799C90.6418 264.14 95.8468 269.458 101.55 274.049C104.609 276.512 111.263 279.306 111.815 283.397C112.011 284.854 111.749 286.64 110.829 287.827C108.903 290.311 98.87 293.707 95.4279 295.487C92.1803 297.177 89.0412 299.069 86.029 301.15C60.2223 318.939 43.9075 350.606 37.3591 380.533C36.4 384.916 33.9632 394.348 34.1909 398.722C30.6673 398.78 24.7259 398.665 21.4095 399.072C24.5429 380.501 27.7487 363.717 35.8904 346.564C46.146 324.958 60.21 305.716 80.1113 291.942C84.439 288.937 90.7272 284.956 95.7028 283.063C93.6976 281.848 91.2541 279.629 89.5051 278.024C79.8241 269.258 72.9934 257.791 69.8949 245.104C66.4257 230.89 68.5212 213.509 72.6657 199.601C73.6967 196.141 75.5189 192.056 76.9669 188.716C78.0532 186.176 79.1802 183.653 80.3474 181.149C85.0626 171.225 84.2415 172.714 83.5103 161.599C81.504 131.101 96.3171 103.405 127.702 96.6402C142.172 93.5211 155.316 94.0887 168.547 101.862C176.207 106.421 183.011 112.761 187.709 120.361C200.613 117.098 214.137 117.181 227 120.603Z"/></svg>